<svg width="619" height="800" viewBox="0 0 619 800" fill="none" xmlns="http://www.w3.org/2000/svg">
<path d="M357.356 484.43V427.646C357.356 405.256 339.141 387.041 316.751 387.041C294.362 387.041 276.146 405.256 276.146 427.646V478.915C276.146 540.698 253.385 600.016 212.053 645.939L155.066 709.258C150.279 714.578 150.711 722.771 156.031 727.561C161.349 732.349 169.542 731.917 174.332 726.597L231.319 663.278C276.939 612.586 302.064 547.112 302.064 478.915V427.646C302.064 419.547 308.653 412.959 316.751 412.959C324.85 412.959 331.438 419.547 331.438 427.646V484.43C331.438 560.461 303.272 633.315 252.127 689.574L196.578 750.678C191.765 755.972 192.155 764.171 197.451 768.985C199.934 771.243 203.053 772.354 206.163 772.354C209.688 772.354 213.199 770.925 215.756 768.112L271.303 707.008C326.795 645.968 357.356 566.922 357.356 484.43Z" fill="white"/>
<path d="M412.647 427.646C412.647 374.768 369.629 331.75 316.751 331.75C263.873 331.75 220.855 374.768 220.855 427.646V478.915C220.855 527.017 203.134 573.197 170.956 608.95L130.443 653.966C125.655 659.286 126.087 667.48 131.407 672.27C136.727 677.057 144.919 676.622 149.708 671.305L190.222 626.289C226.69 585.769 246.774 533.431 246.774 478.915V427.646C246.774 389.059 278.166 357.667 316.753 357.667C355.34 357.667 386.731 389.059 386.731 427.646V484.43C386.731 574.243 353.46 660.308 293.041 726.766L246.173 778.324C241.358 783.618 241.748 791.817 247.044 796.631C249.527 798.889 252.646 800 255.756 800C259.281 800 262.792 798.571 265.349 795.758L312.219 744.2C376.981 672.961 412.647 580.707 412.647 484.43V427.646Z" fill="white"/>
<path d="M467.939 427.646C467.939 344.28 400.117 276.458 316.751 276.458C233.385 276.458 165.563 344.28 165.563 427.646V478.915C165.563 513.334 152.882 546.379 129.857 571.962L93.3783 612.494C88.5904 617.814 89.0224 626.008 94.3425 630.797C99.6608 635.585 107.856 635.15 112.644 629.833L149.123 589.301C176.438 558.951 191.481 519.748 191.481 478.915V427.646C191.481 358.571 247.676 302.376 316.751 302.376C385.826 302.376 442.021 358.571 442.021 427.646V484.43C442.021 588.029 403.642 687.302 333.952 763.959L320.981 778.227C316.167 783.523 316.558 791.72 321.853 796.534C324.336 798.791 327.457 799.903 330.565 799.903C334.09 799.903 337.601 798.474 340.158 795.661L353.128 781.393C427.163 699.953 467.937 594.492 467.937 484.43V427.646H467.939Z" fill="white"/>
<path d="M110.272 427.646C110.272 434.804 116.074 440.605 123.231 440.605C130.387 440.605 136.19 434.804 136.19 427.646C136.19 384.009 152.032 341.856 180.801 308.95C209.302 276.351 248.419 255.032 290.945 248.923C298.03 247.905 302.947 241.336 301.929 234.253C300.912 227.169 294.337 222.258 287.26 223.269C238.603 230.26 193.866 254.63 161.288 291.893C128.39 329.52 110.272 377.733 110.272 427.646Z" fill="white"/>
<path d="M136.19 478.915C136.19 471.756 130.387 465.956 123.231 465.956C116.074 465.956 110.272 471.756 110.272 478.915C110.272 499.653 102.633 519.559 88.7615 534.972L56.314 571.027C51.5261 576.346 51.958 584.539 57.2781 589.329C59.7559 591.558 62.8539 592.655 65.9433 592.655C69.4889 592.655 73.0224 591.207 75.5796 588.365L108.027 552.311C126.187 532.131 136.19 506.067 136.19 478.915Z" fill="white"/>
<path d="M497.795 594.597C490.868 592.793 483.79 596.931 481.976 603.853C477.192 622.132 471.241 640.304 464.283 657.863C461.646 664.517 464.903 672.048 471.557 674.683C473.124 675.304 474.738 675.598 476.328 675.598C481.485 675.598 486.363 672.496 488.38 667.409C495.721 648.878 502.002 629.704 507.051 610.414C508.862 603.492 504.717 596.41 497.795 594.597Z" fill="white"/>
<path d="M454.66 274.094C449.337 269.306 441.143 269.745 436.359 275.067C431.575 280.389 432.01 288.582 437.332 293.367C475.45 327.634 497.311 376.575 497.311 427.646V484.43C497.311 505.982 495.825 527.699 492.893 548.981C491.917 556.073 496.872 562.611 503.962 563.587C504.561 563.67 505.157 563.71 505.746 563.71C512.119 563.71 517.674 559.007 518.567 552.517C521.66 530.067 523.229 507.159 523.229 484.429V427.646C523.231 369.235 498.237 313.268 454.66 274.094Z" fill="white"/>
<path d="M394.078 264.494C395.877 265.351 397.772 265.756 399.64 265.756C404.483 265.756 409.13 263.027 411.35 258.364C414.427 251.903 411.682 244.169 405.221 241.094C386.55 232.204 366.705 226.207 346.239 223.267C339.144 222.257 332.587 227.169 331.569 234.251C330.552 241.334 335.469 247.903 342.553 248.921C360.433 251.49 377.767 256.729 394.078 264.494Z" fill="white"/>
<path d="M316.751 165.875C311.903 165.875 306.999 166.01 302.173 166.276C295.027 166.67 289.553 172.783 289.947 179.927C290.342 187.074 296.449 192.577 303.6 192.152C307.953 191.912 312.376 191.791 316.749 191.791C446.799 191.791 552.603 297.593 552.603 427.644V484.429C552.603 491.587 558.405 497.388 565.561 497.388C572.718 497.388 578.52 491.587 578.52 484.429V427.646C578.522 283.305 461.091 165.875 316.751 165.875Z" fill="white"/>
<path d="M175.06 236.187C177.612 236.187 180.191 235.433 182.446 233.866C204.006 218.873 227.685 207.68 252.827 200.591C259.716 198.649 263.726 191.489 261.784 184.601C259.842 177.714 252.68 173.709 245.795 175.644C217.872 183.516 191.581 195.945 167.65 212.584C161.774 216.67 160.323 224.746 164.409 230.621C166.926 234.246 170.959 236.187 175.06 236.187Z" fill="white"/>
<path d="M80.898 478.915V427.646C80.898 367.361 103.728 309.947 145.183 265.978C150.092 260.771 149.852 252.57 144.644 247.66C139.436 242.749 131.234 242.993 126.325 248.199C80.3174 296.995 54.98 360.726 54.98 427.646V478.915C54.98 485.97 52.3813 492.741 47.6643 497.982L31.685 515.736C26.8971 521.056 27.3291 529.249 32.6492 534.037C35.1252 536.268 38.225 537.365 41.3144 537.365C44.86 537.365 48.3917 535.919 50.9507 533.076L66.9299 515.323C75.9373 505.311 80.898 492.382 80.898 478.915Z" fill="white"/>
<path d="M617.356 326.746C603.142 284.506 580.554 246.346 550.218 213.325C545.375 208.055 537.178 207.706 531.908 212.549C526.638 217.393 526.291 225.59 531.132 230.861C558.997 261.192 579.744 296.233 592.793 335.01C594.614 340.423 599.663 343.839 605.073 343.839C606.443 343.839 607.837 343.62 609.207 343.158C615.989 340.876 619.638 333.527 617.356 326.746Z" fill="white"/>
<path d="M419.163 127.554C412.395 125.237 405.024 128.847 402.707 135.62C400.39 142.391 404.001 149.759 410.773 152.074C439.348 161.852 466.177 176.017 490.514 194.181C492.841 195.917 495.559 196.753 498.254 196.753C502.204 196.753 506.106 194.955 508.651 191.544C512.933 185.809 511.751 177.688 506.016 173.408C479.516 153.635 450.294 138.205 419.163 127.554Z" fill="white"/>
<path d="M115.396 217.552C169.909 165.285 241.418 136.501 316.751 136.501C330.74 136.501 344.806 137.508 358.558 139.492C365.648 140.525 372.214 135.601 373.237 128.517C374.26 121.432 369.347 114.863 362.263 113.84C347.286 111.68 331.974 110.583 316.751 110.583C234.7 110.583 156.82 141.928 97.4595 198.844C38.2837 255.584 3.67638 331.725 0.013314 413.244C-0.308068 420.394 5.228 426.452 12.3762 426.771C12.5749 426.782 12.7718 426.785 12.9688 426.785C19.8578 426.785 25.5926 421.36 25.9053 414.409C29.266 339.571 61.0483 269.66 115.396 217.552Z" fill="white"/>
<path d="M316.751 55.2916C287.771 55.2916 258.894 58.6506 230.921 65.2752C223.956 66.9236 219.649 73.9076 221.297 80.8709C222.947 87.8342 229.931 92.1435 236.895 90.4934C262.913 84.3353 289.779 81.2096 316.751 81.2096C411.777 81.2096 500.478 119.069 566.514 187.81C569.059 190.459 572.456 191.793 575.861 191.793C579.091 191.793 582.325 190.594 584.838 188.18C589.999 183.221 590.165 175.017 585.206 169.858C550.799 134.041 510.382 105.864 465.081 86.1167C418.159 65.6623 368.253 55.2916 316.751 55.2916Z" fill="white"/>
<path d="M25.66 216.681C28.0306 218.536 30.8453 219.437 33.641 219.437C37.4889 219.437 41.2971 217.731 43.8527 214.467C80.7857 167.293 129.408 130.291 184.461 107.457C191.072 104.715 194.209 97.1335 191.467 90.5227C188.725 83.9119 181.14 80.7706 174.533 83.5162C115.369 108.054 63.1235 147.81 23.4466 198.486C19.0336 204.124 20.0254 212.27 25.66 216.681Z" fill="white"/>
<path d="M137.066 66.9114C138.956 66.9114 140.876 66.4968 142.69 65.619C197.252 39.2743 255.815 25.9179 316.751 25.9179C348.506 25.9179 380.133 29.6536 410.749 37.0212C417.703 38.6903 424.704 34.4121 426.379 27.454C428.053 20.4959 423.77 13.4963 416.81 11.822C384.212 3.97754 350.546 0 316.751 0C251.88 0 189.527 14.2238 131.422 42.279C124.977 45.3909 122.275 53.1387 125.387 59.5836C127.621 64.2125 132.248 66.9114 137.066 66.9114Z" fill="white"/>
<path d="M464.912 54.2255C478.272 59.5455 491.495 65.6622 504.214 72.4026C506.147 73.4289 508.224 73.9144 510.27 73.9144C514.914 73.9144 519.405 71.4108 521.731 67.0203C525.081 60.6963 522.673 52.8535 516.349 49.5015C502.807 42.3257 488.727 35.8134 474.5 30.1477C467.849 27.4989 460.314 30.7438 457.665 37.3909C455.018 44.0397 458.263 51.5784 464.912 54.2255Z" fill="white"/>
</svg>
